<?xml version="1.0" encoding="utf-8"?>
<!-- Generator: Adobe Illustrator 23.0.1, SVG Export Plug-In . SVG Version: 6.00 Build 0)  -->
<svg version="1.1" xmlns="http://www.w3.org/2000/svg" xmlns:xlink="http://www.w3.org/1999/xlink" x="0px" y="0px"
	 viewBox="0 0 453.54 453.54" style="enable-background:new 0 0 453.54 453.54;" xml:space="preserve">
<style type="text/css">
	.st0{fill:#FFFFFF;stroke:#FFFFFF;stroke-miterlimit:10;}
	.st1{fill:#FFFFFF;stroke:#000000;stroke-miterlimit:10;}
	.st2{fill:#231F20;stroke:#FFFFFF;stroke-miterlimit:10;}
	.st3{fill:#2CB34B;stroke:#FFFFFF;stroke-miterlimit:10;}
	.st4{opacity:0.8;}
	.st5{font-family:'MyriadPro-BoldCondIt';}
	.st6{font-size:72px;}
</style>
<g id="Layer_1">
	<rect x="73.14" y="19.66" class="st0" width="340.16" height="340.16"/>
	<rect x="72.65" y="34.87" class="st0" width="341.13" height="325.43"/>
	<path class="st1" d="M-130.37-128.64"/>
	<path class="st2" d="M159.59,130.12l-60.7,55.39c-3.74,8.21-7.55,18.12-10.62,29.59c-3.69,13.74-5.37,26.15-6.07,36.42
		c3.72,5.35,9.06,11.86,16.49,18.17c11.53,9.8,23.14,14.88,30.98,17.57c0.39,0.1,0.97,0.24,1.66,0.4c1.93,0.45,7.06,1.63,15.33,2.86
		c4.42,0.66,10.06,1.39,16.73,1.97l33.38-72.83c-5.98-3.46-13.44-8.77-20.42-16.76c-4.89-5.61-18.05-22.29-19.57-46.99
		C156.13,145.32,157.81,136.42,159.59,130.12z"/>
	<path class="st2" d="M153.52,251.52"/>
	<path class="st2" d="M220.25,136.77"/>
	<path class="st2" d="M203.57,139.2"/>
	<path class="st2" d="M193.83,165.97"/>
	<path class="st2" d="M173.4,143.79"/>
	<path class="st2" d="M213,225.26"/>
	<path class="st2" d="M246.84,244.26c2.1,2.1,5.08,4.9,8.87,7.95c0,0,2.05,1.68,4.35,3.32c11.13,7.94,21.88,13.65,31.26,17.79
		l14.8,4.66c5.43-0.33,10.87-0.67,16.3-1c-0.61-3.08-1.23-6.15-1.84-9.23l-14.96-4.6v4.93h-9.1l-8.4-2.33l-19.52-17.79l-19.8-10.95
		L246.84,244.26z"/>
	<polygon class="st3" points="265.86,245.45 288.13,265.75 296.53,268.08 305.62,268.08 304.12,262.32 	"/>
	<path class="st2" d="M241.94,247.55c-1.4,2.58-2.84,5.61-4.16,9.08c-1.28,3.39-2.19,6.54-2.84,9.35c3.56,3.7,7.52,7.54,11.9,11.43
		c3.92,3.48,7.75,6.62,11.44,9.46c-2.33,3.04-4.99,7.15-7.12,12.37c-1.11,2.71-1.89,5.26-2.45,7.56c1.88,1.49,4.52,3.25,7.93,4.67
		c5.19,2.15,9.85,2.56,12.83,2.57c5.21-12.6,10.42-25.19,15.63-37.79c-6.76-3.1-14.49-7.19-22.63-12.6
		C254.26,258.2,247.45,252.62,241.94,247.55z"/>
	<path class="st2" d="M238.44,291.41"/>
	<path class="st2" d="M264.9,260.13"/>
	<polygon class="st2" points="291.34,284.46 305.62,291.41 322.33,286.28 326.79,285.87 312.41,320.31 291.34,320.31 275.34,326.38 
			"/>
	<path class="st2" d="M268,333.39"/>
	<path class="st2" d="M310.43,298.41c1.95-0.2,3.9-0.4,5.85-0.6c1.66,0.13,3.33,0.26,4.99,0.39"/>
	<polyline class="st2" points="308.78,304.75 315.1,303.92 319.08,304.34 	"/>
	<polyline class="st2" points="306.62,311.07 313.93,310.24 316.61,310.24 	"/>
	<path class="st2" d="M267.8,318.49c0.02,0.07,0.02,0.18,0.01,0.38c-0.04,0.52-0.29,1.04-0.91,3.13c-1.01,3.39-0.87,6.28-0.77,8.22
		c0.12,2.41,0.55,4.22,0.85,5.52c0.49,2.09,1.1,3.84,1.63,5.18c-2.48-0.46-4.39-1.18-5.75-1.8c0,0-2.83-1.25-6.65-3.99
		c-0.49-0.35-0.94-0.7-0.94-0.7c0,0-0.01,0-0.01,0c0,0-3.7-5.93-5.38-10.65c-1.03-2.91-1.92-7.1-1.3-12.76
		c4.17,4.99,7.88,6.4,10.6,6.7C262.49,318.08,267.39,317.16,267.8,318.49z"/>
	<path class="st2" d="M275.18,329.62c0.51,3.01,1.4,6.67,2.97,10.67c1.9,4.83,4.21,8.66,6.21,11.48c0.67,1.34,1.9,3.38,4.05,5.27
		c1.53,1.34,3.04,2.18,4.19,2.7c0.98,0.04,1.97,0.08,2.97,0.14c2.23,0.12,4.42,0.26,6.56,0.43c-3.68-11.93-7.36-23.87-11.05-35.8
		c-1.78,0.19-3.77,0.51-5.92,1.07C281.05,326.63,277.7,328.18,275.18,329.62z"/>
	<polyline class="st2" points="302.14,360.3 307.66,359.81 302.14,322.62 291.09,324.5 	"/>
	<path class="st2" d="M289.26,337.65"/>
	<path class="st2" d="M280.98,354.74"/>
	<path class="st2" d="M321.5,323.02c0.61,5.71,1.31,10.47,2.23,15.61c1.17,6.53,2.56,12.61,4.04,18.2c0.97-0.96,1.93-1.93,3.9-2.89
		l0.75-43.27c-2.8,0-4.6,0-6.4,0C324.52,314.78,323.01,318.9,321.5,323.02z"/>
	<path class="st2" d="M349.3,338.72"/>
	<path class="st2" d="M355.36,335.18"/>
	<polygon class="st2" points="334.54,286.27 328.45,305.42 334.54,305.42 341.41,288.93 	"/>
	<path class="st2" d="M251.68,229.8c11.72,2.71,24.57,5.11,38.47,6.87c8.47,1.07,16.61,1.82,24.36,2.3
		c0.01-2.84,0.03-5.68,0.04-8.52c3.24-1.29,6.48-2.58,9.72-3.88c0.89,5.2,2.34,11.21,4.75,17.68c4.61,12.38,10.95,21.67,16.09,27.97
		c0.12,1.94,0.23,3.88,0.35,5.82C314.2,261.95,282.94,245.88,251.68,229.8z"/>
	<path class="st2" d="M339.25,250.6c2.48,5.75,6.15,12.82,11.6,20.22c4.75,6.46,9.63,11.51,13.85,15.34
		c2.95-2.29,5.94-4.66,8.96-7.13c2.99-2.44,5.89-4.87,8.71-7.28c-2.78-3.84-5.98-9.01-8.71-15.51c-2.55-6.09-3.96-11.64-4.77-16.11
		C359.01,243.63,349.13,247.11,339.25,250.6z"/>
	<path class="st2" d="M375.41,236.28c5.88-0.22,11.77-0.44,17.65-0.65l-6.33,27.53c-1.61-1.99-3.28-4.33-4.83-7.07
		C377.63,248.59,376.04,241.39,375.41,236.28z"/>
	<path class="st2" d="M389.82,276.62"/>
	<path class="st2" d="M385.85,283.79"/>
	<polyline class="st2" points="362.74,196.26 375.41,194.51 393.06,229.34 373.35,230.92 	"/>
	<path class="st2" d="M80.43,260.19c4.78,6.74,15.97,20.56,35.6,29.6c16.61,7.65,39.59,8.1,47.67,7.9c2.28,6.3,2.28,6.3,6.17,12.55
		l-66.46-4.82c-10.64,0.13-21.28,0.25-31.92,0.38c0.54-4.83,1.22-9.84,2.08-15.01C75.4,279.7,77.79,269.48,80.43,260.19z"/>
	<path class="st2" d="M136.32,292.47"/>
	<polygon class="st2" points="196.77,64.49 255.26,143.79 302.14,192.16 341.41,235.62 349.3,230.92 355.36,215.78 355.36,209.75 
		324.48,179.59 244.77,109.23 215.05,77.56 	"/>
	<polygon class="st2" points="285.74,70.59 293.9,105.65 305.62,152.73 316.61,165.97 321.75,162.75 303.75,114.67 305.62,103.65 	
		"/>
	<path class="st2" d="M316.35,97.99c11.13,11.6,22.25,23.19,33.38,34.79l11.08,20.73l-3.35,10.54c-7.38,1.99-14.76,3.98-22.14,5.97
		c-8.2-18.27-16.4-36.54-24.6-54.81C312.6,109.47,314.48,103.73,316.35,97.99z"/>
	<polygon class="st2" points="298.57,69.18 347.98,120.13 355.36,126.45 366.25,150.06 386.63,150.06 377.9,130.12 317.76,70.59 	
		"/>
	<path class="st2" d="M390.11,146.24c4.95-9.99,9.9-19.99,14.86-29.98c5.95-8.78,11.9-17.57,17.85-26.35
		c-8.62,29.14-17.24,58.28-25.86,87.41c-2.09,6.25-4.17,12.51-6.26,18.76c-1.36,3.09-2.72,6.17-4.07,9.26l0,0
		c0,0-7.41-16.85-7.41-16.85l0,0c0,0-10-1.48-10-1.48l0,0c0,0,5.92-7.98,5.92-7.98l0,0c9.15-0.85,11.46-2.19,11.46-2.19
		c4.33-2.51,5.86-7.13,6.14-7.98c0.42-1.28,0.87-3.33,0.3-8.91C392.69,156.58,391.94,151.84,390.11,146.24z"/>
	<path class="st2" d="M398.1,189.05"/>
	<path class="st2" d="M406.07,176.83"/>
	<polygon class="st2" points="369.22,157.12 386.63,157.12 384.23,170.78 369.22,170.78 	"/>
	<path class="st2" d="M194.71,270.12c-4.73,9.91-9.46,19.83-14.2,29.74c3.93,4.38,8.48,9,13.72,13.63
		c9.14,8.07,18.11,14.19,26,18.82c4.99,0.22,10.35,0.64,16.01,1.36c4.42,0.56,8.61,1.24,12.55,2c-5.28-8.56-8.12-13.16-8.12-13.16
		c-1.01-1.53-3.59-5.43-4.74-10.17c-2.65-10.89,3.59-20.82,5.76-23.97c-6.6-3.74-14.5-7.65-23.66-11.15
		C209.56,273.97,201.68,271.72,194.71,270.12z"/>
	<path class="st2" d="M222.77,306.62"/>
	<path class="st2" d="M223.44,311.01"/>
	<path class="st2" d="M247.78,322.51"/>
	<path class="st2" d="M197.08,264.04c1.98-6.2,5.02-13.83,9.8-21.97c5.75-9.79,12.12-17.13,17.32-22.28
		c2.18,2.58,5.16,5.65,9.09,8.64c3.86,2.95,7.55,4.99,10.57,6.4c-0.03,0.01-7.97,3.06-8.01,3.07c0,0-2.95,1.13-2.95,1.13
		c0,0-11.82,12.21-13.52,27.04c-0.27,2.33-0.23,4.22-0.18,5.26C211.83,268.89,204.46,266.46,197.08,264.04z"/>
	<path class="st2" d="M236.72,225.14"/>
	<path class="st2" d="M245.21,224.7"/>
	<path class="st2" d="M196.26,152.06c16.72,10.5,33.5,21.12,50.32,31.88c7.76,4.96,15.48,9.92,23.17,14.89
		c4.44,9.24,8.88,18.48,13.32,27.73l0,0l0,0c-4.59,0-10.88-0.22-18.29-1.25c-8.47-1.17-15.87-3.03-22.03-4.99
		c-7.51-2.75-13.31-5.94-17.33-8.45c-18.21-11.38-27.38-26.03-30.18-30.71c-2.65-4.44-4.36-8.3-5.34-10.74
		C192.03,164.3,194.14,158.18,196.26,152.06z"/>
	<path class="st2" d="M116.58,112.75c-5.5-4.92-11.01-9.84-16.51-14.76l5.76-8.08l84.04-11.24l39.21,43.5l5.86,11.83
		C195.49,126.92,156.03,119.84,116.58,112.75z"/>
	<path class="st2" d="M178.78,134.12"/>
	<path class="st2" d="M165.52,128.84c-1.96,5.93-7.39,24.88,0.26,47.12c7.36,21.39,22.34,32.85,27.56,36.49
		c6.8,0.17,13.61,0.34,20.41,0.51c-3.22-1.37-7.4-3.51-11.74-6.89c-4-3.11-6.93-6.32-8.99-8.93c-3.7-3.61-11.95-12.69-14.48-26.79
		c-1.19-6.64-0.76-12.39-0.06-16.51c0.67-1.98,1.75-4.66,3.51-7.59c1.41-2.35,3.11-5.19,6.33-7.86c1.51-1.26,4-3.01,7.58-4.27
		C185.76,132.36,175.64,130.6,165.52,128.84z"/>
	<polygon class="st2" points="222.77,78.67 278.72,74.46 294.41,139.2 286.85,139.2 	"/>
	<path class="st2" d="M244.27,143.58c3.38,2.27,5.99,4.58,7.9,6.48l31.17,28.39l-13.41,13.08c-23.09-14.79-46.18-29.59-69.27-44.38
		c0.17-3.61,0.34-7.22,0.51-10.82c9.29-1.33,15.25-2.18,15.25-2.18l0,0c0,0,8.44,0.61,16.47,3.63
		C238.69,139.95,242.73,142.55,244.27,143.58z"/>
	<path class="st2" d="M176.47,153.02"/>
	<path class="st2" d="M118.84,136.8"/>
	<polygon class="st2" points="278.72,197.95 285.74,189.05 302.14,205.34 288.66,221.57 	"/>
	<path class="st2" d="M244.84,214.51"/>
	<line class="st2" x1="305.62" y1="277.98" x2="305.62" y2="291.41"/>
	<path class="st2" d="M438.1,317.95"/>
	<path class="st2" d="M325.26,283.24"/>
	<path class="st2" d="M326.99,285.62"/>
	<path class="st2" d="M322.87,276.46c0.02,0.28,0.03,0.56,0.05,0.84c1.37,2.51,2.74,5.02,4.11,7.54c0.02,0.17,0.03,0.34,0.05,0.51"
		/>
	<path class="st2" d="M445.01,163.37"/>
	<path class="st2" d="M370.97,295.83"/>
	<path class="st2" d="M305.62,263.15"/>
</g>
<g id="Layer_2">
	<text transform="matrix(1.4049 0 0 1 59.0826 421.7605)" class="st4 st5 st6">PYSHEEET</text>
	<path d="M377.8,382.84"/>
</g>
</svg>
