<?xml version="1.0" encoding="utf-8"?>
<!-- Generator: Adobe Illustrator 23.0.1, SVG Export Plug-In . SVG Version: 6.00 Build 0)  -->
<svg version="1.1" xmlns="http://www.w3.org/2000/svg" xmlns:xlink="http://www.w3.org/1999/xlink" x="0px" y="0px"
	 viewBox="0 0 439.37 439.37" style="enable-background:new 0 0 439.37 439.37;" xml:space="preserve">
<style type="text/css">
	.st0{fill:#231F20;stroke:#FFFFFF;stroke-miterlimit:10;}
	.st1{fill:#FFFFFF;stroke:#FFFFFF;stroke-miterlimit:10;}
	.st2{opacity:0.8;}
	.st3{font-family:'MyriadPro-BoldCondIt';}
	.st4{font-size:71.7899px;}
</style>
<g id="Layer_1">
	<path class="st0" d="M138.07,125.04l-60.28,55.23c-3.71,8.19-7.49,18.07-10.55,29.5c-3.66,13.7-5.33,26.08-6.03,36.31
		c3.69,5.33,8.99,11.83,16.37,18.12c11.45,9.77,22.98,14.84,30.76,17.52c0.39,0.1,0.96,0.24,1.65,0.4
		c1.91,0.45,7.01,1.62,15.22,2.86c4.39,0.66,10,1.38,16.62,1.96l33.15-72.62c-5.94-3.45-13.35-8.74-20.28-16.72
		c-4.85-5.59-17.93-22.23-19.44-46.86C134.63,140.19,136.3,131.32,138.07,125.04z"/>
	<path class="st0" d="M132.04,246.08"/>
	<path class="st0" d="M198.3,131.67"/>
	<path class="st0" d="M181.74,134.09"/>
	<path class="st0" d="M172.07,160.78"/>
	<path class="st0" d="M151.78,138.67"/>
	<path class="st0" d="M191.1,219.9"/>
	<path class="st0" d="M224.72,238.84c2.09,2.1,5.04,4.89,8.81,7.93c0,0,2.04,1.67,4.32,3.31c11.05,7.91,21.73,13.61,31.04,17.74
		l14.69,4.64c5.4-0.33,10.79-0.66,16.19-0.99l0,0"/>
	<polygon class="st1" points="243.6,240.03 265.71,260.27 274.05,262.6 283.09,262.6 281.59,256.85 	"/>
	<path class="st0" d="M219.85,242.13c-1.39,2.57-2.83,5.6-4.13,9.06c-1.27,3.38-2.17,6.52-2.82,9.32c3.54,3.69,7.47,7.52,11.81,11.4
		c3.89,3.47,7.7,6.6,11.36,9.43c-2.32,3.03-4.95,7.13-7.07,12.33c-1.1,2.7-1.88,5.25-2.43,7.54c1.87,1.48,4.49,3.24,7.88,4.65
		c5.15,2.15,9.78,2.55,12.74,2.56c5.17-12.56,10.35-25.12,15.52-37.68c-6.72-3.09-14.39-7.17-22.47-12.56
		C232.08,252.74,225.32,247.18,219.85,242.13z"/>
	<path class="st0" d="M216.37,285.85"/>
	<path class="st0" d="M242.65,254.67"/>
	<polygon class="st0" points="268.91,278.92 283.09,285.85 299.68,280.74 304.11,280.34 289.83,314.67 268.91,314.67 253.02,320.73 
			"/>
	<path class="st0" d="M245.73,327.72"/>
	<path class="st0" d="M287.86,292.83c1.94-0.2,3.87-0.4,5.81-0.6c1.65,0.13,3.31,0.26,4.96,0.39"/>
	<polyline class="st0" points="286.23,299.16 292.5,298.33 296.45,298.74 	"/>
	<polyline class="st0" points="284.08,305.46 291.34,304.63 294,304.63 	"/>
	<path class="st0" d="M245.53,312.86c0.02,0.07,0.02,0.18,0.01,0.38c-0.04,0.52-0.29,1.04-0.9,3.12c-1,3.38-0.86,6.26-0.77,8.2
		c0.12,2.41,0.54,4.21,0.84,5.51c0.49,2.08,1.09,3.83,1.62,5.16c-2.46-0.46-4.36-1.18-5.71-1.79c0,0-2.81-1.24-6.61-3.98
		c-0.48-0.35-0.93-0.7-0.93-0.7c0,0-0.01,0-0.01,0c0,0-3.67-5.91-5.34-10.62c-1.03-2.9-1.91-7.08-1.29-12.72
		c4.14,4.98,7.82,6.38,10.52,6.68C240.25,312.45,245.12,311.53,245.53,312.86z"/>
	<path class="st0" d="M252.85,323.95c0.51,3,1.39,6.65,2.95,10.64c1.89,4.82,4.18,8.64,6.17,11.45c0.66,1.34,1.89,3.37,4.02,5.25
		c1.52,1.33,3.01,2.17,4.16,2.69c0.98,0.04,1.96,0.08,2.95,0.13c2.21,0.11,4.39,0.26,6.52,0.43c-3.66-11.9-7.31-23.8-10.97-35.7
		c-1.77,0.19-3.75,0.51-5.88,1.06C258.69,320.97,255.36,322.52,252.85,323.95z"/>
	<polyline class="st0" points="279.63,354.54 285.11,354.05 279.63,316.98 268.66,318.85 	"/>
	<path class="st0" d="M266.84,331.96"/>
	<path class="st0" d="M258.62,349"/>
	<path class="st0" d="M298.86,317.37c0.61,5.69,1.3,10.44,2.22,15.56c1.16,6.51,2.54,12.57,4.02,18.14
		c0.96-0.96,1.92-1.92,3.88-2.88l0.74-43.15c-2.78,0-4.57,0-6.35,0C301.86,309.15,300.36,313.26,298.86,317.37z"/>
	<path class="st0" d="M326.46,333.03"/>
	<path class="st0" d="M332.48,329.5"/>
	<polygon class="st0" points="311.81,280.73 305.75,299.82 311.81,299.82 318.62,283.39 	"/>
	<path class="st0" d="M229.52,224.42c11.64,2.7,24.4,5.09,38.2,6.85c8.42,1.07,16.49,1.81,24.19,2.3c0.01-2.83,0.03-5.67,0.04-8.5
		c3.22-1.29,6.43-2.58,9.65-3.87c0.88,5.18,2.32,11.17,4.72,17.63c4.58,12.34,10.87,21.61,15.98,27.89c0.12,1.93,0.23,3.87,0.35,5.8
		C291.61,256.49,260.56,240.45,229.52,224.42z"/>
	<path class="st0" d="M316.48,245.17c2.46,5.73,6.11,12.78,11.52,20.16c4.71,6.44,9.56,11.48,13.76,15.3
		c2.93-2.28,5.9-4.65,8.9-7.11c2.97-2.43,5.85-4.86,8.65-7.26c-2.76-3.83-5.94-8.98-8.65-15.47c-2.53-6.07-3.94-11.61-4.74-16.06
		C336.11,238.21,326.29,241.69,316.48,245.17z"/>
	<path class="st0" d="M352.39,230.88c5.84-0.22,11.69-0.44,17.53-0.65l-6.29,27.45c-1.6-1.98-3.26-4.32-4.8-7.04
		C354.6,243.16,353.01,235.98,352.39,230.88z"/>
	<path class="st0" d="M366.7,271.11"/>
	<path class="st0" d="M362.76,278.26"/>
	<polyline class="st0" points="339.81,190.98 352.39,189.24 369.92,223.96 350.34,225.54 	"/>
	<path class="st0" d="M59.45,254.73c4.75,6.72,15.86,20.5,35.35,29.51c16.5,7.62,39.32,8.08,47.34,7.87
		c2.27,6.28,2.27,6.28,6.12,12.51l-66-4.81c-10.57,0.13-21.13,0.25-31.7,0.38c0.53-4.82,1.21-9.81,2.07-14.96
		C54.46,274.18,56.83,263.99,59.45,254.73z"/>
	<path class="st0" d="M114.96,286.91"/>
	<polygon class="st0" points="174.99,59.6 233.07,138.67 279.63,186.9 318.62,230.23 326.46,225.54 332.48,210.45 332.48,204.44 
		301.81,174.37 222.65,104.2 193.14,72.63 	"/>
	<polygon class="st0" points="263.34,65.68 271.45,100.64 283.09,147.58 294,160.78 299.11,157.57 281.23,109.63 283.09,98.64 	"/>
	<path class="st0" d="M293.74,93c11.05,11.56,22.1,23.12,33.15,34.68c3.03,6.74,6.06,13.49,9.09,20.23
		c-0.24,5.49-0.48,10.99-0.72,16.48c-7.56,0.14-15.12,0.29-22.68,0.43c-8.14-18.22-16.28-36.44-24.43-54.65
		C290.02,104.45,291.88,98.72,293.74,93z"/>
	<polygon class="st0" points="276.09,64.27 325.15,115.07 332.48,121.38 343.3,144.92 363.53,144.92 354.87,125.04 295.14,65.68 	
		"/>
	<path class="st0" d="M367,141.11c4.92-9.96,9.83-19.93,14.75-29.89c5.91-8.76,11.82-17.52,17.73-26.28
		c-8.56,29.05-17.12,58.11-25.68,87.16c-2.07,6.24-4.14,12.47-6.22,18.71c-1.35,3.08-2.7,6.15-4.05,9.23l0,0
		c0,0-7.36-16.8-7.36-16.8l0,0c0,0-9.93-1.48-9.93-1.48l0,0c0,0,5.88-7.96,5.88-7.96l0,0c9.09-0.84,11.38-2.18,11.38-2.18
		c4.3-2.51,5.82-7.11,6.09-7.95c0.42-1.28,0.86-3.32,0.3-8.88C369.56,151.42,368.81,146.69,367,141.11z"/>
	<path class="st0" d="M374.93,183.79"/>
	<path class="st0" d="M382.84,171.61"/>
	<polygon class="st0" points="346.25,151.96 363.53,151.96 361.16,165.58 346.25,165.58 	"/>
	<path class="st0" d="M172.95,264.63c-4.7,9.89-9.4,19.77-14.1,29.66c3.9,4.37,8.42,8.97,13.63,13.59
		c9.08,8.05,17.99,14.15,25.82,18.76c4.96,0.22,10.27,0.64,15.9,1.35c4.39,0.56,8.55,1.24,12.46,1.99
		c-5.25-8.53-8.07-13.12-8.07-13.12c-1-1.52-3.57-5.42-4.71-10.14c-2.63-10.86,3.56-20.76,5.72-23.9
		c-6.55-3.73-14.4-7.63-23.5-11.12C187.69,268.47,179.86,266.22,172.95,264.63z"/>
	<path class="st0" d="M200.8,301.02"/>
	<path class="st0" d="M201.48,305.4"/>
	<path class="st0" d="M225.64,316.86"/>
	<path class="st0" d="M175.3,258.56c1.97-6.19,4.99-13.79,9.73-21.9c5.71-9.76,12.03-17.08,17.2-22.22
		c2.16,2.57,5.13,5.63,9.02,8.61c3.84,2.94,7.5,4.98,10.5,6.39c-0.03,0.01-7.92,3.05-7.95,3.06c0,0-2.93,1.13-2.93,1.13
		c0,0-11.74,12.18-13.43,26.96c-0.26,2.32-0.22,4.21-0.18,5.24C189.95,263.4,182.62,260.98,175.3,258.56z"/>
	<path class="st0" d="M214.66,219.78"/>
	<path class="st0" d="M223.09,219.34"/>
	<path class="st0" d="M175.3,144.92c12.51,9.02,25.11,18.05,37.8,27.09c8.86,6.3,17.7,12.56,26.52,18.78
		c-3.01,3.15-6.63,7.54-9.94,13.26c-3.33,5.75-5.34,11.1-6.58,15.29l0,0c-19.02-12.34-19.64-12.79-19.64-12.79
		c-8.5-6.11-20.78-15.19-29.97-30.62c-2.63-4.43-4.33-8.28-5.31-10.71C170.55,158.45,172.92,151.68,175.3,144.92z"/>
	<path class="st0" d="M95.35,107.72c-5.46-4.91-10.93-9.81-16.39-14.72l5.72-8.06l83.46-11.21l38.94,43.38l5.82,11.8
		C173.72,121.85,134.53,114.78,95.35,107.72z"/>
	<path class="st0" d="M157.13,129.03"/>
	<path class="st0" d="M143.95,123.76c-1.95,5.92-7.34,24.8,0.25,46.99c7.3,21.33,22.18,32.75,27.37,36.38
		c6.76,0.17,13.51,0.34,20.27,0.51c-3.2-1.36-7.34-3.5-11.66-6.87c-3.97-3.1-6.88-6.3-8.93-8.91c-3.67-3.6-11.87-12.65-14.38-26.71
		c-1.19-6.62-0.75-12.36-0.06-16.46c0.67-1.98,1.74-4.64,3.48-7.57c1.4-2.35,3.09-5.18,6.28-7.84c1.5-1.25,3.98-3,7.53-4.25
		C164.05,127.27,154,125.52,143.95,123.76z"/>
	<polygon class="st0" points="200.8,73.74 256.38,69.54 271.95,134.09 264.44,134.09 	"/>
	<path class="st0" d="M227.9,142.92L227.9,142.92c0,0,10.71,12.4,31.19,36.1l0,0c-3.81,2.41-7.63,4.82-11.44,7.24
		c-22.93-14.75-45.86-29.5-68.79-44.25c0.17-3.6,0.34-7.2,0.5-10.79c9.22-1.32,15.15-2.17,15.15-2.17c0,0,0,0,0,0
		C194.51,129.01,227.89,142.92,227.9,142.92z"/>
	<path class="st0" d="M154.83,147.87"/>
	<path class="st0" d="M97.6,131.7"/>
	<polygon class="st0" points="256.38,192.67 263.34,183.79 279.63,200.04 266.24,216.22 	"/>
	<path class="st0" d="M222.73,209.18"/>
	<line class="st0" x1="283.09" y1="272.47" x2="283.09" y2="285.85"/>
	<path class="st0" d="M414.66,312.32"/>
	<path class="st0" d="M302.6,277.71"/>
	<path class="st0" d="M304.31,280.08"/>
	<path class="st0" d="M300.21,270.95c0.02,0.28,0.03,0.56,0.05,0.83c1.36,2.5,2.72,5.01,4.08,7.51c0.02,0.17,0.03,0.34,0.05,0.51"/>
	<path class="st0" d="M249.46,197.59"/>
	<path class="st0" d="M234.04,221.21l15.42-23.62c3.85,6.42,7.71,12.85,11.56,19.27c-2.87,2.57-5.73,5.14-8.6,7.71"/>
</g>
<g id="Layer_2">
	<text transform="matrix(1.3993 0 0 1 38.2506 415.8268)" class="st2 st3 st4">PYSHEEET</text>
	<path d="M354.77,377.01"/>
</g>
</svg>
